<?xml version="1.0" encoding="UTF-8" standalone="no"?>
<!DOCTYPE svg PUBLIC "-//W3C//DTD SVG 1.1//EN" "http://www.w3.org/Graphics/SVG/1.1/DTD/svg11.dtd">
<svg width="100%" height="100%" viewBox="0 0 60 60" version="1.1" xmlns="http://www.w3.org/2000/svg" xmlns:xlink="http://www.w3.org/1999/xlink" xml:space="preserve" xmlns:serif="http://www.serif.com/" style="fill-rule:evenodd;clip-rule:evenodd;stroke-linejoin:round;stroke-miterlimit:2;">
    <g transform="matrix(1,0,0,1,-40,-46)">
        <g transform="matrix(0.987924,0,0,0.987924,0.219712,0.555497)">
            <path d="M87.52,55.781C87.615,55.674 87.717,55.574 87.826,55.481C90.098,53.533 95.309,49.066 98.454,46.37C98.911,45.978 99.555,45.888 100.102,46.14C100.649,46.392 101,46.939 101,47.541L101,84.569C101,88.831 98.592,92.728 94.78,94.634C85.895,99.076 70.633,106.707 70.633,106.707C70.633,106.707 55.372,99.076 46.487,94.634C42.675,92.728 40.267,88.831 40.267,84.569L40.267,47.541C40.267,46.939 40.617,46.392 41.165,46.14C41.712,45.888 42.356,45.978 42.813,46.37C45.958,49.066 51.169,53.533 53.44,55.481C53.55,55.574 53.652,55.674 53.746,55.781L56.215,54.673C65.387,50.559 75.879,50.559 85.051,54.673L87.52,55.781ZM72.42,90.656C72.42,89.452 73.097,88.349 74.171,87.804C76.411,86.669 80.272,84.711 82.557,83.552C83.692,82.977 84.407,81.813 84.407,80.54C84.407,78.314 84.407,74.803 84.407,72.625C84.407,71.427 85.076,70.33 86.141,69.782C88.637,68.497 93.248,66.123 96.024,64.693C96.507,64.445 97.085,64.468 97.545,64.755C98.006,65.042 98.282,65.55 98.273,66.093C98.21,69.76 98.107,76.797 98.107,83.67C98.107,87.28 96.095,90.581 92.911,92.195L72.42,102.586L72.42,90.656ZM68.847,90.656C68.847,89.452 68.17,88.349 67.096,87.804C64.856,86.669 60.995,84.711 58.709,83.552C57.575,82.977 56.86,81.813 56.86,80.54C56.86,78.314 56.86,74.803 56.86,72.625C56.86,71.427 56.191,70.33 55.126,69.782C52.63,68.497 48.019,66.123 45.242,64.693C44.76,64.445 44.182,64.468 43.721,64.755C43.26,65.042 42.984,65.55 42.994,66.093C43.057,69.76 43.16,76.797 43.16,83.67C43.16,87.28 45.171,90.581 48.355,92.195L68.847,102.586L68.847,90.656Z" style="fill:rgb(23,23,23);"/>
        </g>
    </g>
</svg>
